HIERARCHY
ROOT Hips
{
    OFFSET 0.000000 0.000000 0.000000
    CHANNELS 6 Xposition Yposition Zposition Zrotation Xrotation Yrotation
    JOINT Spine
    {
        OFFSET -0.000000 14.517291 0.000000
        CHANNELS 3 Zrotation Xrotation Yrotation
        JOINT Spine1
        {
            OFFSET -0.000000 37.558300 0.000000
            CHANNELS 3 Zrotation Xrotation Yrotation
            JOINT Neck
            {
                OFFSET -0.000000 37.404057 3.400369
                CHANNELS 3 Zrotation Xrotation Yrotation
                JOINT Head
                {
                    OFFSET -0.000000 24.785618 -3.540803
                    CHANNELS 3 Zrotation Xrotation Yrotation
                    End Site
                    {
                        OFFSET -0.000000 35.408028 0.000000
                    }
                }
            }
            JOINT LeftShoulder
            {
                OFFSET 6.992933 33.973492 -0.192664
                CHANNELS 3 Zrotation Xrotation Yrotation
                JOINT LeftArm
                {
                    OFFSET 21.527611 0.000000 0.000000
                    CHANNELS 3 Zrotation Xrotation Yrotation
                    JOINT LeftForeArm
                    {
                        OFFSET 56.353916 0.000000 0.000000
                        CHANNELS 3 Zrotation Xrotation Yrotation
                        JOINT LeftHand
                        {
                            OFFSET 47.774071 0.000000 0.000000
                            CHANNELS 3 Zrotation Xrotation Yrotation
                            End Site
                            {
                                OFFSET 26.556021 0.000000 0.000000
                            }
                        }
                    }
                }
            }
            JOINT RightShoulder
            {
                OFFSET -7.065357 33.973492 -0.192664
                CHANNELS 3 Zrotation Xrotation Yrotation
                JOINT RightArm
                {
                    OFFSET -21.527611 0.000000 0.000000
                    CHANNELS 3 Zrotation Xrotation Yrotation
                    JOINT RightForeArm
                    {
                        OFFSET -56.353916 0.000000 0.000000
                        CHANNELS 3 Zrotation Xrotation Yrotation
                        JOINT RightHand
                        {
                            OFFSET -47.774071 0.000000 0.000000
                            CHANNELS 3 Zrotation Xrotation Yrotation
                            End Site
                            {
                                OFFSET -26.556021 0.000000 0.000000
                            }
                        }
                    }
                }
            }
        }
    }
    JOINT LeftUpLeg
    {
        OFFSET 17.704014 0.000000 0.000000
        CHANNELS 3 Zrotation Xrotation Yrotation
        JOINT LeftLeg
        {
            OFFSET -0.000000 -81.181816 0.000000
            CHANNELS 3 Zrotation Xrotation Yrotation
            JOINT LeftFoot
            {
                OFFSET -0.000000 -62.821102 0.000000
                CHANNELS 3 Zrotation Xrotation Yrotation
                JOINT LeftToeBase
                {
                    OFFSET -0.000000 -11.507608 26.556021
                    CHANNELS 3 Zrotation Xrotation Yrotation
                    End Site
                    {
                        OFFSET -0.000000 0.000000 7.081605
                    }
                }
            }
        }
    }
    JOINT RightUpLeg
    {
        OFFSET -17.704014 0.000000 0.000000
        CHANNELS 3 Zrotation Xrotation Yrotation
        JOINT RightLeg
        {
            OFFSET -0.000000 -81.181816 0.000000
            CHANNELS 3 Zrotation Xrotation Yrotation
            JOINT RightFoot
            {
                OFFSET -0.000000 -62.821102 0.000000
                CHANNELS 3 Zrotation Xrotation Yrotation
                JOINT RightToeBase
                {
                    OFFSET -0.000000 -11.507608 26.556021
                    CHANNELS 3 Zrotation Xrotation Yrotation
                    End Site
                    {
                        OFFSET -0.000000 0.000000 7.081605
                    }
                }
            }
        }
    }
}
MOTION
Frames:    13
Frame Time:    0.008333
15.554331    155.370712    -106.849670    2.317277    -8.510396    45.609684    -3.897976    0.761562    -4.726845    -1.621014    7.317907    -1.480107    -0.721528    5.183815    -16.870544    20.113493    0.392380    -14.770162    7.395289    6.012433    -23.125324    -23.811481    21.635824    -69.482063    14.609069    -49.669361    -87.265350    -13.894979    -37.988522    -17.887106    -1.383403    7.900905    -3.535311    31.325289    -9.552285    51.414627    -27.016182    -14.211793    61.895485    -11.470148    -1.646760    37.502735    18.138321    -2.254325    -0.491606    -14.466154    36.265839    -18.496435    6.149731    -26.213919    41.689545    0.000000    0.000000    0.000000    -19.277014    -13.270144    -14.371843    13.555994    32.452347    -15.355678    11.461946    2.709069    -20.481920    0.000000    0.000000    0.000000    
15.559055    155.371979    -106.837616    2.313929    -8.510591    45.565125    -3.895936    0.750022    -4.697625    -1.574976    7.266139    -1.473919    -0.726358    5.184513    -16.847797    20.055170    0.400191    -14.755035    7.351044    5.970135    -23.041336    -23.685123    21.319859    -68.649551    14.090579    -48.904209    -87.530144    -12.977917    -37.562317    -17.531923    -1.394835    7.898257    -3.565257    31.370853    -9.610473    51.397282    -26.897238    -14.082627    61.976917    -11.482944    -1.571286    37.532520    18.137537    -2.226836    -0.473091    -14.460514    36.247852    -18.487133    6.150791    -26.216694    41.696922    0.000000    0.000000    0.000000    -19.267715    -13.274428    -14.392484    13.538685    32.444965    -15.306616    11.439999    2.705039    -20.467615    0.000000    0.000000    0.000000    
15.567422    155.374222    -106.823944    2.312704    -8.510936    45.518219    -3.888417    0.727944    -4.664904    -1.552125    7.229452    -1.464683    -0.705810    5.187704    -16.828411    19.984861    0.400088    -14.746392    7.332062    5.891801    -22.973070    -23.613110    21.043716    -67.766899    13.385599    -48.147213    -87.992241    -13.093264    -37.089504    -17.717936    -1.394528    7.897352    -3.581592    31.401144    -9.659558    51.359035    -26.797709    -13.981314    62.051800    -11.506039    -1.511649    37.507610    18.133692    -2.194953    -0.468354    -14.468198    36.228237    -18.469868    6.157710    -26.221806    41.721081    0.000000    0.000000    0.000000    -19.261583    -13.268790    -14.377098    13.552193    32.416370    -15.299229    11.413465    2.701691    -20.453573    0.000000    0.000000    0.000000    
15.573867    155.379593    -106.808029    2.312940    -8.518338    45.476273    -3.877194    0.715367    -4.632516    -1.537323    7.190794    -1.455223    -0.677531    5.173775    -16.796146    19.925457    0.407150    -14.724598    7.348113    5.716285    -22.887644    -23.653650    20.831186    -66.868706    12.603377    -47.313339    -88.491806    -13.188347    -36.601421    -17.897182    -1.382728    7.887072    -3.605208    31.402113    -9.660295    51.318920    -26.735508    -13.935823    62.080811    -11.484617    -1.486601    37.493805    18.134180    -2.156148    -0.457794    -14.464148    36.201340    -18.439014    6.144159    -26.227917    41.711639    0.000000    0.000000    0.000000    -19.244644    -13.258229    -14.371490    13.538688    32.392353    -15.267532    11.409269    2.695332    -20.442421    0.000000    0.000000    0.000000    
15.582525    155.383499    -106.793938    2.312663    -8.521503    45.430714    -3.868783    0.687364    -4.601121    -1.517510    7.165918    -1.445981    -0.675642    5.181422    -16.777082    19.895149    0.412073    -14.709750    7.293707    5.687128    -22.808830    -23.441423    20.540718    -66.060944    11.863562    -46.552898    -88.958458    -12.934697    -36.255833    -17.874878    -1.397084    7.884784    -3.613576    31.401882    -9.639300    51.277260    -26.701384    -13.928459    62.090683    -11.482092    -1.489460    37.426739    18.130835    -2.118966    -0.446998    -14.460279    36.177822    -18.425028    6.152392    -26.227160    41.720043    0.000000    0.000000    0.000000    -19.234823    -13.252975    -14.355598    13.543663    32.367523    -15.268295    11.393094    2.695020    -20.423306    0.000000    0.000000    0.000000    
15.590087    155.387573    -106.777908    2.311806    -8.532897    45.392406    -3.856544    0.671496    -4.568727    -1.496539    7.133026    -1.436761    -0.658056    5.189574    -16.756016    19.852121    0.409833    -14.694898    7.251087    5.636834    -22.746473    -23.241556    20.279501    -65.272423    10.949587    -45.821609    -89.564545    -12.670160    -36.099842    -17.686317    -1.408241    7.886071    -3.632175    31.382870    -9.599396    51.231068    -26.684168    -13.949001    62.093983    -11.468007    -1.509261    37.366272    18.130703    -2.085701    -0.450563    -14.449666    36.164387    -18.415140    6.139143    -26.247711    41.738708    0.000000    0.000000    0.000000    -19.216671    -13.243316    -14.344398    13.538702    32.351501    -15.253000    11.376680    2.689503    -20.399954    0.000000    0.000000    0.000000    
15.595291    155.389282    -106.762787    2.311039    -8.550346    45.356373    -3.834556    0.654631    -4.542263    -1.483924    7.117468    -1.428742    -0.560577    5.258534    -16.718479    19.709673    0.249781    -14.657893    7.211342    5.549959    -22.667051    -23.038239    20.072060    -64.498672    9.966210    -45.119263    -90.207344    -12.652335    -36.005562    -17.663059    -1.424291    7.878801    -3.636281    31.389242    -9.596671    51.185432    -26.625704    -13.938649    62.123932    -11.473295    -1.525469    37.338261    18.140535    -2.049250    -0.462039    -14.464152    36.143784    -18.367201    6.141801    -26.254227    41.740372    0.000000    0.000000    0.000000    -19.193085    -13.229758    -14.341049    13.530575    32.334621    -15.260504    11.357596    2.694304    -20.365477    0.000000    0.000000    0.000000    
15.598935    155.394287    -106.750473    2.306753    -8.562249    45.326378    -3.814255    0.636387    -4.512404    -1.473798    7.094448    -1.419455    -0.549851    5.269644    -16.707041    19.689323    0.239393    -14.648050    7.177340    5.473238    -22.609282    -22.831856    19.887318    -63.747814    8.978533    -44.426250    -90.864037    -12.476610    -35.980480    -17.508701    -1.432906    7.883332    -3.654603    31.379271    -9.576089    51.146309    -26.595062    -13.959652    62.131226    -11.442353    -1.550244    37.304317    18.144487    -2.029479    -0.475548    -14.466852    36.139862    -18.346849    6.139763    -26.255421    41.759590    0.000000    0.000000    0.000000    -19.175770    -13.225568    -14.318925    13.531013    32.322678    -15.258333    11.360937    2.705644    -20.350733    0.000000    0.000000    0.000000    
15.602066    155.394424    -106.740746    2.303832    -8.577290    45.301605    -3.781272    0.629992    -4.483814    -1.484820    7.058848    -1.409598    -0.539273    5.303863    -16.694275    19.697298    0.207899    -14.629358    7.155064    5.407232    -22.565296    -22.629068    19.706278    -63.009232    8.005789    -43.734348    -91.529388    -12.373774    -35.960449    -17.333570    -1.439905    7.882585    -3.669548    31.393454    -9.572605    51.101727    -26.555027    -13.947199    62.153275    -11.418815    -1.546520    37.290768    18.151014    -2.007274    -0.495833    -14.469995    36.132671    -18.325981    6.138725    -26.270781    41.779278    0.000000    0.000000    0.000000    -19.161194    -13.218513    -14.298515    13.542931    32.315392    -15.253024    11.356386    2.697281    -20.346519    0.000000    0.000000    0.000000    
15.605244    155.395264    -106.729530    2.297344    -8.597492    45.278671    -3.747711    0.628139    -4.461297    -1.485150    7.019316    -1.402522    -0.504931    5.295682    -16.681231    19.633125    0.220667    -14.630177    7.116829    5.347905    -22.517317    -22.408024    19.578953    -62.309181    7.225467    -43.152332    -92.049370    -12.570776    -35.883831    -17.364038    -1.449368    7.888300    -3.688942    31.393446    -9.549966    51.071236    -26.547499    -13.952792    62.153355    -11.387536    -1.545511    37.283176    18.164005    -1.987800    -0.522073    -14.481107    36.128365    -18.285831    6.137599    -26.281200    41.788979    0.000000    0.000000    0.000000    -19.137329    -13.210040    -14.262125    13.554433    32.299088    -15.275255    11.358884    2.714808    -20.348007    0.000000    0.000000    0.000000    
15.605661    155.397980    -106.722237    2.288390    -8.610909    45.261944    -3.718048    0.623007    -4.443543    -1.489560    6.963812    -1.396948    -0.471757    5.344183    -16.668079    19.603653    0.188827    -14.618596    7.069371    5.316130    -22.502634    -22.207306    19.421890    -61.584354    6.357749    -42.537720    -92.644699    -12.714955    -35.869919    -17.306934    -1.443046    7.908529    -3.678241    31.392139    -9.567101    51.018299    -26.528450    -13.930878    62.165356    -11.391394    -1.530455    37.263393    18.173489    -1.978183    -0.532789    -14.468314    36.133171    -18.290253    6.140862    -26.285574    41.794815    0.000000    0.000000    0.000000    -19.120693    -13.207198    -14.237640    13.569330    32.290737    -15.277771    11.352882    2.719770    -20.347820    0.000000    0.000000    0.000000    
15.606506    155.399292    -106.709755    2.283992    -8.629450    45.246864    -3.717094    0.606875    -4.417401    -1.462498    6.951128    -1.389888    -0.407527    5.349883    -16.651417    19.532801    0.162385    -14.612967    7.049421    5.267737    -22.491333    -22.036966    19.280506    -60.910252    5.635770    -41.945824    -93.115227    -12.896633    -35.767254    -17.397041    -1.431663    7.896693    -3.704248    31.363293    -9.549891    50.981167    -26.547312    -13.932217    62.138580    -11.372374    -1.519624    37.242828    18.191696    -1.956595    -0.557787    -14.491742    36.116646    -18.255301    6.144473    -26.295696    41.812397    0.000000    0.000000    0.000000    -19.100985    -13.200261    -14.223308    13.572043    32.291611    -15.244580    11.373642    2.717359    -20.377298    0.000000    0.000000    0.000000    
15.610162    155.404037    -106.703842    2.280372    -8.643689    45.233631    -3.712969    0.588948    -4.393692    -1.437453    6.936536    -1.383515    -0.351608    5.376729    -16.638073    19.468142    0.112719    -14.605303    7.039675    5.198246    -22.493773    -21.968443    19.133112    -60.212734    5.023297    -41.305122    -93.531769    -12.956358    -35.561501    -17.375950    -1.429545    7.893246    -3.719384    31.367483    -9.580513    50.949165    -26.527821    -13.885262    62.142185    -11.401434    -1.492180    37.239765    18.199144    -1.940869    -0.564099    -14.482651    36.114761    -18.255684    6.141685    -26.296707    41.817768    0.000000    0.000000    0.000000    -19.087301    -13.192650    -14.196115    13.582120    32.281891    -15.257335    11.368338    2.729049    -20.367998    0.000000    0.000000    0.000000    
